# Blender v3.2.1 OBJ File: ''
# www.blender.org
mtllib bowl.mtl
o bowl_Mesh.002
v 0.000000 -1.000000 -0.002585
v 0.000000 -1.000000 0.108813
v 0.000000 -1.000000 0.220212
v 0.000000 -1.000000 0.331610
v 0.000000 -1.000000 0.443008
v 0.000000 -1.000000 0.554407
v 0.000000 -1.000000 0.665805
v 0.000000 -1.000000 0.777204
v 0.000000 -1.000000 0.888602
v 0.000000 -1.000000 1.000000
v 0.000000 -0.888889 1.000000
v 0.000000 -0.777778 1.000000
v 0.000000 -0.666667 1.000000
v 0.000000 -0.555557 1.000000
v 0.000000 -0.444446 1.000000
v 0.000000 -0.333335 1.000000
v 0.000000 -0.222224 1.000000
v 0.000000 -0.111114 1.000000
v 0.000000 -0.000003 1.000000
v 0.000000 0.111108 1.000000
v 0.000000 0.222220 1.000000
v 0.000000 0.333331 1.000000
v 0.000000 0.444443 1.000000
v 0.000000 0.555555 1.000000
v 0.000000 0.666666 1.000000
v 0.000000 0.777778 1.000000
v 0.000000 0.888889 1.000000
v 0.000000 1.000000 1.000000
v 0.000000 1.000000 0.888602
v 0.000000 1.000000 0.777204
v 0.000000 1.000000 0.665805
v 0.000000 1.000000 0.554407
v 0.000000 1.000000 0.443008
v 0.000000 1.000000 0.331610
v 0.000000 1.000000 0.220212
v 0.000000 1.000000 0.108813
v -0.000000 1.000000 -0.002585
v -0.000000 0.998769 -0.182196
v -0.000000 0.995221 -0.351494
v -0.000000 0.989575 -0.507588
v -0.000000 0.982050 -0.647593
v -0.000000 0.972865 -0.768617
v -0.000000 0.962238 -0.867775
v -0.000000 0.950388 -0.942179
v -0.000000 0.937535 -0.988939
v -0.000000 0.890177 -0.985112
v -0.000000 0.847768 -0.929851
v -0.000000 0.824682 -0.891318
v -0.000000 0.801077 -0.846741
v -0.000000 0.777503 -0.797042
v -0.000000 0.754512 -0.743139
v -0.000000 0.732654 -0.685951
v -0.000000 0.707940 -0.626351
v -0.000000 0.677251 -0.567020
v -0.000000 0.641545 -0.509112
v -0.000000 0.601782 -0.453785
v -0.000000 0.558923 -0.402192
v -0.000000 0.513926 -0.355489
v -0.000000 0.467752 -0.314831
v -0.000000 0.421360 -0.281375
v -0.000000 0.375710 -0.256274
v -0.000000 0.330222 -0.236485
v -0.000000 0.283145 -0.217832
v -0.000000 0.235561 -0.200633
v -0.000000 0.188550 -0.185208
v -0.000000 0.143197 -0.171873
v -0.000000 0.100583 -0.160948
v -0.000000 0.061790 -0.152751
v -0.000000 -0.000003 -0.145810
v -0.000000 -0.061790 -0.152751
v -0.000000 -0.100581 -0.160948
v -0.000000 -0.143195 -0.171873
v -0.000000 -0.188549 -0.185208
v -0.000000 -0.235559 -0.200633
v -0.000000 -0.283145 -0.217832
v -0.000000 -0.330222 -0.236485
v -0.000000 -0.375710 -0.256274
v -0.000000 -0.421360 -0.281375
v -0.000000 -0.467752 -0.314831
v -0.000000 -0.513926 -0.355489
v -0.000000 -0.558923 -0.402192
v -0.000000 -0.601782 -0.453785
v -0.000000 -0.641545 -0.509113
v -0.000000 -0.677250 -0.567020
v -0.000000 -0.707940 -0.626351
v -0.000000 -0.732654 -0.685951
v -0.000000 -0.754512 -0.743139
v -0.000000 -0.777503 -0.797043
v -0.000000 -0.801076 -0.846742
v -0.000000 -0.824681 -0.891319
v -0.000000 -0.847766 -0.929852
v -0.000000 -0.869781 -0.961423
v -0.000000 -0.908397 -1.000000
v -0.000000 -0.950382 -0.942179
v -0.000000 -0.962230 -0.867775
v -0.000000 -0.972858 -0.768618
v -0.000000 -0.982045 -0.647592
v -0.000000 -0.989571 -0.507588
v -0.000000 -0.995219 -0.351493
v -0.000000 -0.998768 -0.182196
v 0.000000 -1.000000 -0.002585
v 0.000000 -1.000000 -0.002585
vn 1.0000 0.0000 -0.0000
usemtl None
s off
f 2//1 102//1 100//1 99//1 98//1 97//1 96//1 95//1 94//1 93//1 92//1 91//1 90//1 89//1 88//1 87//1 86//1 85//1 84//1 83//1 82//1 81//1 80//1 79//1 78//1 77//1 76//1 75//1 74//1 73//1 72//1 71//1 70//1 69//1 68//1 67//1 66//1 65//1 64//1 63//1 62//1 61//1 60//1 59//1 58//1 57//1 56//1 55//1 54//1 53//1 52//1 51//1 50//1 49//1 48//1 47//1 46//1 45//1 44//1 43//1 42//1 41//1 40//1 39//1 38//1 37//1 36//1 35//1 34//1 33//1 32//1 31//1 30//1 29//1 28//1 27//1 26//1 25//1 24//1 23//1 22//1 21//1 20//1 19//1 18//1 17//1 16//1 15//1 14//1 13//1 12//1 11//1 10//1 9//1 8//1 7//1 6//1 5//1 4//1 3//1
l 1 2
l 100 101
l 101 102
