# Blender v3.2.1 OBJ File: ''
# www.blender.org
mtllib shoe.mtl
o shoe_Mesh.005
v -0.000000 -0.999997 -0.515117
v -0.000000 -0.998874 -0.399210
v -0.000000 -0.995885 -0.296863
v -0.000000 -0.990823 -0.206583
v -0.000000 -0.983485 -0.126876
v -0.000000 -0.973663 -0.056250
v 0.000000 -0.961152 0.006789
v 0.000000 -0.945747 0.063732
v 0.000000 -0.927242 0.116073
v 0.000000 -0.905431 0.165304
v 0.000000 -0.885607 0.202092
v 0.000000 -0.860942 0.241650
v 0.000000 -0.832254 0.282978
v 0.000000 -0.800362 0.325078
v 0.000000 -0.766083 0.366951
v 0.000000 -0.730235 0.407596
v 0.000000 -0.693637 0.446015
v 0.000000 -0.657105 0.481209
v 0.000000 -0.621459 0.512179
v 0.000000 -0.583634 0.540969
v 0.000000 -0.540826 0.569886
v 0.000000 -0.494239 0.598318
v 0.000000 -0.445082 0.625654
v 0.000000 -0.394559 0.651281
v 0.000000 -0.343874 0.674589
v 0.000000 -0.294236 0.694965
v 0.000000 -0.246848 0.711799
v 0.000000 -0.202917 0.724478
v 0.000000 -0.177582 0.730779
v 0.000000 -0.152248 0.737081
v 0.000000 -0.126913 0.743383
v 0.000000 -0.101578 0.749685
v 0.000000 -0.076243 0.755987
v 0.000000 -0.050908 0.762288
v 0.000000 -0.025574 0.768590
v 0.000000 -0.000239 0.774892
v 0.000000 0.025095 0.781194
v 0.000000 0.025095 0.805506
v 0.000000 0.025095 0.829817
v 0.000000 0.025095 0.854129
v 0.000000 0.025095 0.878441
v 0.000000 0.025095 0.902753
v 0.000000 0.025095 0.927065
v 0.000000 0.025095 0.951376
v 0.000000 0.025095 0.975688
v 0.000000 0.025095 1.000000
v 0.000000 0.079256 1.000000
v 0.000000 0.133418 1.000000
v 0.000000 0.187579 1.000000
v 0.000000 0.241741 1.000000
v 0.000000 0.295902 1.000000
v 0.000000 0.350063 1.000000
v 0.000000 0.404225 1.000000
v 0.000000 0.458386 1.000000
v 0.000000 0.512548 1.000000
v 0.000000 0.566709 1.000000
v 0.000000 0.620870 1.000000
v 0.000000 0.675032 1.000000
v 0.000000 0.729193 1.000000
v 0.000000 0.783354 1.000000
v 0.000000 0.837516 1.000000
v 0.000000 0.891677 1.000000
v 0.000000 0.945839 1.000000
v 0.000000 1.000000 1.000000
v 0.000000 1.000000 0.947579
v 0.000000 1.000000 0.895158
v 0.000000 1.000000 0.842737
v 0.000000 1.000000 0.790316
v 0.000000 1.000000 0.737896
v 0.000000 1.000000 0.685475
v 0.000000 1.000000 0.633054
v 0.000000 1.000000 0.580633
v 0.000000 1.000000 0.528212
v 0.000000 1.000000 0.475791
v 0.000000 1.000000 0.423370
v 0.000000 1.000000 0.370949
v 0.000000 1.000000 0.318529
v 0.000000 1.000000 0.266108
v 0.000000 1.000000 0.213687
v 0.000000 1.000000 0.161266
v 0.000000 1.000000 0.108845
v 0.000000 1.000000 0.056424
v -0.000000 0.960882 0.026660
v -0.000000 0.921764 -0.003104
v -0.000000 0.882647 -0.032868
v -0.000000 0.843529 -0.062632
v -0.000000 0.804412 -0.092396
v -0.000000 0.765294 -0.122160
v -0.000000 0.726176 -0.151924
v -0.000000 0.687059 -0.181688
v -0.000000 0.647941 -0.211452
v -0.000000 0.608823 -0.241216
v -0.000000 0.569705 -0.270980
v -0.000000 0.530587 -0.300744
v -0.000000 0.491470 -0.330508
v -0.000000 0.452352 -0.360271
v -0.000000 0.413235 -0.390035
v -0.000000 0.374117 -0.419799
v -0.000000 0.334999 -0.449563
v -0.000000 0.295881 -0.479328
v -0.000000 0.259263 -0.479328
v -0.000000 0.222645 -0.479328
v -0.000000 0.186027 -0.479328
v -0.000000 0.149408 -0.479328
v -0.000000 0.112790 -0.479328
v -0.000000 0.076172 -0.479328
v -0.000000 0.039554 -0.479328
v -0.000000 0.002936 -0.479328
v -0.000000 -0.033683 -0.479328
v -0.000000 -0.070300 -0.479328
v -0.000000 -0.106918 -0.479328
v -0.000000 -0.143536 -0.479328
v -0.000000 -0.180154 -0.479328
v -0.000000 -0.216772 -0.479328
v -0.000000 -0.253390 -0.479328
v -0.000000 -0.290008 -0.479328
v -0.000000 -0.326626 -0.479328
v -0.000000 -0.363243 -0.479328
v -0.000000 -0.394211 -0.508490
v -0.000000 -0.425178 -0.537652
v -0.000000 -0.456145 -0.566814
v -0.000000 -0.487113 -0.595977
v -0.000000 -0.518079 -0.625139
v -0.000000 -0.549047 -0.654301
v -0.000000 -0.580014 -0.683463
v -0.000000 -0.610981 -0.712625
v -0.000000 -0.641948 -0.741787
v -0.000000 -0.692529 -0.788807
v -0.000000 -0.741468 -0.833127
v -0.000000 -0.787846 -0.873990
v -0.000000 -0.830745 -0.910641
v -0.000000 -0.869245 -0.942324
v -0.000000 -0.902428 -0.968282
v -0.000000 -0.929376 -0.987759
v -0.000000 -0.949169 -1.000000
v -0.000000 -0.974822 -0.973518
v -0.000000 -0.981002 -0.937219
v -0.000000 -0.986510 -0.888843
v -0.000000 -0.991231 -0.829798
v -0.000000 -0.995053 -0.761494
v -0.000000 -0.997864 -0.685339
v -0.000000 -0.999550 -0.602743
v -0.000000 -1.000000 -0.515115
v -0.000000 -0.999997 -0.515117
vn 1.0000 0.0000 -0.0000
usemtl None
s off
f 2//1 144//1 142//1 141//1 140//1 139//1 138//1 137//1 136//1 135//1 134//1 133//1 132//1 131//1 130//1 129//1 128//1 127//1 126//1 125//1 124//1 123//1 122//1 121//1 120//1 119//1 118//1 117//1 116//1 115//1 114//1 113//1 112//1 111//1 110//1 109//1 108//1 107//1 106//1 105//1 104//1 103//1 102//1 101//1 100//1 99//1 98//1 97//1 96//1 95//1 94//1 93//1 92//1 91//1 90//1 89//1 88//1 87//1 86//1 85//1 84//1 83//1 82//1 81//1 80//1 79//1 78//1 77//1 76//1 75//1 74//1 73//1 72//1 71//1 70//1 69//1 68//1 67//1 66//1 65//1 64//1 63//1 62//1 61//1 60//1 59//1 58//1 57//1 56//1 55//1 54//1 53//1 52//1 51//1 50//1 49//1 48//1 47//1 46//1 45//1 44//1 43//1 42//1 41//1 40//1 39//1 38//1 37//1 36//1 35//1 34//1 33//1 32//1 31//1 30//1 29//1 28//1 27//1 26//1 25//1 24//1 23//1 22//1 21//1 20//1 19//1 18//1 17//1 16//1 15//1 14//1 13//1 12//1 11//1 10//1 9//1 8//1 7//1 6//1 5//1 4//1 3//1
l 1 2
l 142 143
l 143 144
